<svg width="17" height="18" viewBox="0 0 17 18" fill="none" xmlns="http://www.w3.org/2000/svg">
<g clip-path="url(#clip0_1449_8195)">
<path d="M13.0078 13.0229L8.5 17.7959L3.99217 13.0229C3.10062 12.0789 2.49347 10.8762 2.24749 9.56683C2.00152 8.25746 2.12777 6.90026 2.61028 5.66687C3.09279 4.43347 3.90989 3.37927 4.95825 2.63757C6.00661 1.89588 7.23915 1.5 8.5 1.5C9.76086 1.5 10.9934 1.89588 12.0418 2.63757C13.0901 3.37927 13.9072 4.43347 14.3897 5.66687C14.8722 6.90026 14.9985 8.25746 14.7525 9.56683C14.5065 10.8762 13.8994 12.0789 13.0078 13.0229ZM8.5 11.2499C9.25145 11.2499 9.97212 10.9339 10.5035 10.3713C11.0348 9.80865 11.3333 9.04559 11.3333 8.24994C11.3333 7.45429 11.0348 6.69123 10.5035 6.12862C9.97212 5.56601 9.25145 5.24994 8.5 5.24994C7.74856 5.24994 7.02789 5.56601 6.49653 6.12862C5.96518 6.69123 5.66667 7.45429 5.66667 8.24994C5.66667 9.04559 5.96518 9.80865 6.49653 10.3713C7.02789 10.9339 7.74856 11.2499 8.5 11.2499Z" fill="#1D63FF"/>
</g>
<defs>
<clipPath id="clip0_1449_8195">
<rect width="17" height="18" fill="white"/>
</clipPath>
</defs>
</svg>
